#!OML:ASF I:\Actors\actors\Patient Classification 1\Patient 1\Session 1\Subject1.ASF
:FULLY-SPECIFIED
:DEGREES
1027
root 1.84656 17.4191 8.84583 4.62348 -13.6101 -6.55988
lowerback -3.41878 1.59464 2.12569
upperback -10.5495 2.1371 0.0958588
thorax -9.13339 0.861513 -1.17505
lowerneck -10.6347 -5.35966 -2.2728
upperneck 31.3237 -11.0858 10.6356
head 13.0282 -3.98202 2.89142
rclavicle 2.38542e-015 3.97569e-015
rhumerus 22.8013 34.2506 -80.2116
rradius 119.843
rwrist 38.5497
rhand -24.2115 -34.2298
rfingers 7.12502
rthumb 2.27306 295.803
lclavicle 2.38542e-015 3.97569e-015
lhumerus -2.77524 -45.858 100.356
lradius 113.785
lwrist -24.9384
lhand -56.6808 -49.9787
lfingers 7.12502
lthumb -28.9867 -22.2127
rfemur -5.61907 21.1399 17.72
rtibia 8.71914
rfoot -11.3684 -12.5392
rtoes -13.3607
lfemur 6.37697 -23.0467 -18.1565
ltibia 0.19961
lfoot -18.4694 40.2247
ltoes 9.45152
1028
root 1.84199 17.4218 8.85473 4.78416 -13.582 -6.5817
lowerback -3.34982 1.58868 2.13335
upperback -10.58 2.13139 0.08937
thorax -9.20811 0.856384 -1.18861
lowerneck -10.4365 -5.37229 -2.26728
upperneck 31.0564 -11.057 10.6274
head 12.8677 -3.98814 2.8896
rclavicle 3.57812e-015 2.46493e-014
rhumerus 22.9164 34.0959 -79.9979
rradius 119.724
rwrist 38.767
rhand -24.4297 -34.3995
rfingers 7.12502
rthumb 2.0624 295.631
lclavicle 3.57812e-015 2.46493e-014
lhumerus -2.41854 -45.8873 100.025
lradius 113.664
lwrist -24.7269
lhand -56.5111 -50.232
lfingers 7.12502
lthumb -28.8246 -22.4382
rfemur -5.73546 21.1444 17.6981
rtibia 8.67336
rfoot -11.3836 -12.5769
rtoes -13.4123
lfemur 6.34751 -23.3116 -18.1395
ltibia 0.05512
lfoot -18.5709 40.4429
ltoes 9.78219
1029
root 1.83566 17.4242 8.86255 4.95164 -13.539 -6.63081
lowerback -3.2154 1.58623 2.19653
upperback -10.6239 2.13146 0.048479
thorax -9.33327 0.846726 -1.27204
lowerneck -10.1723 -5.38332 -2.20148
upperneck 30.6983 -11.0232 10.615
head 12.6521 -3.99188 2.87613
rclavicle 2.78299e-015 7.95139e-015
rhumerus 23.0442 33.9156 -79.8063
rradius 119.536
rwrist 39.1608
rhand -24.8828 -35.076
rfingers 7.12502
rthumb 1.6248 294.95
lclavicle 2.78299e-015 7.95139e-015
lhumerus -2.01722 -45.9348 99.658
lradius 113.56
lwrist -24.3274
lhand -56.433 -51.0075
lfingers 7.12502
lthumb -28.75 -23.201
rfemur -5.8628 21.2225 17.7177
rtibia 8.66
rfoot -11.4376 -12.6848
rtoes -12.9403
lfemur 6.29037 -23.5679 -18.0665
ltibia -0.0672231
lfoot -18.6291 40.6709
ltoes 9.86838
1030
root 1.82854 17.4259 8.86916 5.08794 -13.4623 -6.72847
lowerback -3.00644 1.53208 2.30887
upperback -10.6376 2.06911 0.0563648
thorax -9.47154 0.80447 -1.32985
lowerneck -9.95716 -5.37291 -2.11357
upperneck 30.3013 -10.9258 10.5068
head 12.4186 -3.97574 2.82933
rclavicle 1.23246e-014 4.13472e-014
rhumerus 23.349 34.6537 -79.2396
rradius 119.647
rwrist 40.0428
rhand -24.7093 -39.0592
rfingers 7.12502
rthumb 1.79236 290.969
lclavicle 1.23246e-014 4.13472e-014
lhumerus -1.58418 -45.8493 99.2939
lradius 113.396
lwrist -24.1313
lhand -56.3317 -52.9964
lfingers 7.12502
lthumb -28.6532 -25.1735
rfemur -5.94585 21.2718 17.8189
rtibia 8.66293
rfoot -11.5013 -12.767
rtoes -12.3123
lfemur 6.23722 -23.7363 -17.9176
ltibia -0.151822
lfoot -18.6518 40.7843
ltoes 9.80798
1031
root 1.82158 17.4281 8.87458 5.24574 -13.3666 -6.87286
lowerback -2.80953 1.49143 2.48286
upperback -10.6206 2.02766 0.0775495
thorax -9.56659 0.76889 -1.40768
lowerneck -9.79892 -5.39018 -2.17946
upperneck 29.943 -10.8958 10.5608
head 12.2427 -3.98382 2.86146
rclavicle 2.40529e-014 1.59028e-015
rhumerus 23.6614 34.5446 -79.0063
rradius 119.68
rwrist 39.472
rhand -24.5118 -38.651
rfingers 7.12502
rthumb 1.98307 291.378
lclavicle 2.40529e-014 1.59028e-015
lhumerus -1.10654 -45.8401 98.9285
lradius 113.178
lwrist -24.1208
lhand -56.2531 -50.4454
lfingers 7.12502
lthumb -28.5781 -22.6099
rfemur -6.05114 21.2758 17.9698
rtibia 8.67601
rfoot -11.5651 -12.8105
rtoes -12.0585
lfemur 6.13124 -23.8163 -17.6725
ltibia -0.20791
lfoot -18.6408 40.7842
ltoes 9.80814
1032
root 1.81319 17.4305 8.87902 5.37155 -13.2576 -6.89212
lowerback -2.65492 1.46639 2.48002
upperback -10.5459 2.0002 0.0915018
thorax -9.57519 0.757183 -1.39322
lowerneck -9.63369 -5.43996 -2.27154
upperneck 29.4869 -10.8968 10.6279
head 12.0325 -4.01063 2.8966
rclavicle 1.07344e-014 2.46493e-014
rhumerus 23.9803 33.4393 -79.0401
rradius 119.292
rwrist 38.5394
rhand -24.6739 -33.6887
rfingers 7.12502
rthumb 1.8265 296.339
lclavicle 1.07344e-014 2.46493e-014
lhumerus -0.414915 -45.9327 98.5063
lradius 112.937
lwrist -24.1919
lhand -57.0013 -49.4432
lfingers 7.12502
lthumb -29.2927 -21.7302
rfemur -6.1506 21.2196 17.9781
rtibia 8.67016
rfoot -11.5807 -12.8498
rtoes -11.9745
lfemur 6.00489 -23.9094 -17.5661
ltibia -0.232853
lfoot -18.6269 40.7837
ltoes 9.82015
1033
root 1.80178 17.433 8.88221 5.4507 -13.1458 -6.82116
lowerback -2.44619 1.40146 2.32227
upperback -10.4491 1.91842 0.142184
thorax -9.59822 0.733838 -1.25164
lowerneck -9.51908 -5.47012 -2.36621
upperneck 29.0295 -10.8326 10.5811
head 11.8203 -4.01934 2.89707
rclavicle 1.88845e-014 -5.56597e-015
rhumerus 24.5028 33.3308 -78.5302
rradius 119.169
rwrist 38.5325
rhand -24.3734 -33.636
rfingers 7.12502
rthumb 2.11676 296.395
lclavicle 1.88845e-014 -5.56597e-015
lhumerus 0.335614 -45.8654 98.0827
lradius 112.733
lwrist -24.1758
lhand -57.1182 -49.6691
lfingers 7.12502
lthumb -29.4043 -21.9756
rfemur -6.23016 21.145 17.9008
rtibia 8.66968
rfoot -11.5847 -12.8723
rtoes -11.7727
lfemur 5.87298 -23.9754 -17.5477
ltibia -0.214853
lfoot -18.5856 40.7533
ltoes 9.69399
